<svg xmlns="http://www.w3.org/2000/svg" viewBox="0 0 1299.04 1500"><defs><style>.cls-1{fill:#df151a;}.cls-2{fill:#fff;}</style></defs><title>VPLogo_M_DarkBG_Duo</title><g id="Layer_2" data-name="Layer 2"><g id="Mark_Only" data-name="Mark Only"><g id="Dark_Duotone" data-name="Dark Duotone"><g id="Mark"><path id="P" class="cls-1" d="M810.37,315.75V92.87L649.52,0,0,375v750l264.7,152.82-27.25-164.31-108.77-62.8V449.29l520.84-300.7,32.17,18.57V1258.55l128.68-74.3V814.34H1106V486.44Zm167,369.91h-167V464.33l167,96.4Z"/><polygon id="V" class="cls-2" points="874.71 130.01 874.71 278.6 1170.36 449.29 1170.36 1050.71 649.52 1351.41 464.43 1244.55 617.35 241.45 480.95 320.2 401.41 869.28 321.7 412.15 193.02 486.44 336.97 1316.66 649.52 1500 1299.04 1125 1299.04 375 874.71 130.01"/></g></g></g></g></svg>